<?xml version="1.0" encoding="utf-8"?>
<!-- Generator: Adobe Illustrator 22.1.0, SVG Export Plug-In . SVG Version: 6.00 Build 0)  -->
<svg version="1.1"
	 id="Layer_1" inkscape:version="0.92.2 (5c3e80d, 2017-08-06)" sodipodi:docname="apple_appstore-ar21.svg" xmlns:cc="http://creativecommons.org/ns#" xmlns:dc="http://purl.org/dc/elements/1.1/" xmlns:inkscape="http://www.inkscape.org/namespaces/inkscape" xmlns:rdf="http://www.w3.org/1999/02/22-rdf-syntax-ns#" xmlns:sodipodi="http://sodipodi.sourceforge.net/DTD/sodipodi-0.dtd" xmlns:svg="http://www.w3.org/2000/svg"
	 xmlns="http://www.w3.org/2000/svg" xmlns:xlink="http://www.w3.org/1999/xlink" x="0px" y="0px" viewBox="0 0 136 68"
	 style="enable-background:new 0 0 136 68;" xml:space="preserve">
<style type="text/css">
	.st0{fill:none;}
	.st1{fill:#FFFFFF;}
	.st2{enable-background:new    ;}
	.st3{fill:none;stroke:#FFFFFF;stroke-width:0.5;stroke-miterlimit:10;}
</style>
<sodipodi:namedview  bordercolor="#666666" borderopacity="1" gridtolerance="10" guidetolerance="10" id="namedview35" inkscape:current-layer="Layer_1" inkscape:cx="23.417664" inkscape:cy="15.818992" inkscape:pageopacity="0" inkscape:pageshadow="2" inkscape:window-height="1001" inkscape:window-maximized="1" inkscape:window-width="1920" inkscape:window-x="-9" inkscape:window-y="-9" inkscape:zoom="4.2216686" objecttolerance="10" pagecolor="#ffffff" showgrid="false">
	</sodipodi:namedview>
<rect x="36.7" y="13" class="st0" width="84.6" height="14.5"/>
<g id="g986" transform="translate(0.00866357,3.9999996)">
	<g id="g971" transform="matrix(0.91966524,0,0,0.91966524,-15.04693,37.296543)">
		<g id="XMLID_423_">
			<path id="XMLID_425_" inkscape:connector-curvature="0" class="st1" d="M55.3-7c0-4.6,3.8-6.8,3.9-6.9c-2.1-3.1-5.5-3.6-6.6-3.6
				c-2.8-0.3-5.5,1.7-6.9,1.7c-1.5,0-3.6-1.6-6-1.6c-3,0-5.9,1.8-7.4,4.5C29-7.3,31.4,0.9,34.5,5.4c1.5,2.2,3.3,4.7,5.7,4.6
				c2.3-0.1,3.2-1.5,6-1.5s3.6,1.5,6,1.4c2.5,0,4-2.2,5.5-4.4c1.8-2.5,2.5-5,2.5-5.2C60.1,0.3,55.4-1.5,55.3-7z"/>
			<path id="XMLID_424_" inkscape:connector-curvature="0" class="st1" d="M50.8-20.5c1.2-1.6,2.1-3.7,1.9-5.8
				c-1.8,0.1-4,1.2-5.3,2.8c-1.1,1.3-2.2,3.5-1.9,5.6C47.4-17.8,49.5-19,50.8-20.5z"/>
		</g>
	</g>
	<g id="g966" transform="matrix(0.69030717,0,0,0.69030717,-63.716371,126.06011)">
		<path id="XMLID_419_" inkscape:connector-curvature="0" class="st1" d="M172.9-124.1h-3.2l-1.8-5.6h-6.1l-1.7,5.6H157l6.1-18.9
			h3.8L172.9-124.1z M167.3-131.9l-1.6-4.9c-0.2-0.5-0.5-1.7-1-3.6h-0.1c-0.2,0.8-0.5,2-0.9,3.6l-1.6,4.9H167.3z"/>
		<path id="XMLID_416_" inkscape:connector-curvature="0" class="st1" d="M188.5-131c0,2.3-0.6,4.2-1.9,5.5
			c-1.1,1.2-2.5,1.8-4.2,1.8c-1.8,0-3.1-0.6-3.9-1.9l0,0v7.2h-3v-14.8c0-1.5,0-3-0.1-4.5h2.7l0.2,2.2h0.1c1-1.6,2.5-2.4,4.6-2.4
			c1.6,0,3,0.6,4,1.9C188-134.8,188.5-133.1,188.5-131L188.5-131z M185.4-130.9c0-1.3-0.3-2.4-0.9-3.3c-0.7-0.9-1.5-1.3-2.6-1.3
			c-0.7,0-1.4,0.3-2,0.7c-0.6,0.5-1,1.1-1.2,2c-0.1,0.3-0.2,0.6-0.2,0.9v2.3c0,1,0.3,1.8,0.9,2.5c0.6,0.7,1.4,1,2.4,1
			c1.1,0,2-0.4,2.7-1.3C185.1-128.3,185.4-129.5,185.4-130.9L185.4-130.9z"/>
		<path id="XMLID_413_" inkscape:connector-curvature="0" class="st1" d="M204.2-131c0,2.3-0.6,4.2-1.9,5.5
			c-1.1,1.2-2.5,1.8-4.2,1.8c-1.8,0-3.1-0.6-3.9-1.9h-0.1v7.2h-3v-14.8c0-1.5,0-3-0.1-4.5h2.7l0.2,2.2h0.1c1-1.6,2.5-2.4,4.6-2.4
			c1.6,0,3,0.6,4,1.9C203.7-134.8,204.2-133.1,204.2-131L204.2-131z M201.1-130.9c0-1.3-0.3-2.4-0.9-3.3c-0.7-0.9-1.5-1.3-2.6-1.3
			c-0.7,0-1.4,0.3-2,0.7c-0.6,0.5-1,1.1-1.2,2c-0.1,0.4-0.1,0.7-0.1,0.9v2.3c0,1,0.3,1.8,0.9,2.5c0.6,0.7,1.4,1,2.4,1
			c1.1,0,2-0.4,2.7-1.3C200.8-128.3,201.1-129.5,201.1-130.9L201.1-130.9z"/>
		<path id="XMLID_412_" inkscape:connector-curvature="0" class="st1" d="M221.7-129.4c0,1.6-0.6,2.9-1.7,3.9
			c-1.2,1.1-2.9,1.7-5.2,1.7c-2,0-3.7-0.4-4.9-1.2l0.7-2.5c1.3,0.8,2.8,1.2,4.4,1.2c1.1,0,2-0.3,2.7-0.8c0.6-0.5,1-1.2,1-2.1
			c0-0.8-0.3-1.4-0.8-1.9s-1.4-1-2.6-1.5c-3.3-1.2-5-3-5-5.4c0-1.6,0.6-2.8,1.7-3.8c1.2-1,2.7-1.5,4.6-1.5c1.7,0,3.2,0.3,4.3,0.9
			l-0.8,2.5c-1.1-0.6-2.3-0.9-3.6-0.9c-1.1,0-1.9,0.3-2.5,0.8c-0.5,0.5-0.8,1-0.8,1.7s0.3,1.4,0.9,1.9c0.5,0.4,1.4,0.9,2.8,1.5
			c1.6,0.7,2.8,1.4,3.6,2.3C221.4-131.8,221.7-130.7,221.7-129.4L221.7-129.4z"/>
		<path id="XMLID_411_" inkscape:connector-curvature="0" class="st1" d="M231.8-135.4h-3.3v6.6c0,1.7,0.6,2.5,1.8,2.5
			c0.5,0,1,0,1.3-0.1l0.1,2.3c-0.6,0.2-1.4,0.3-2.4,0.3c-1.2,0-2.1-0.4-2.8-1.1c-0.7-0.7-1-2-1-3.7v-6.9h-2v-2.3h2v-2.4l3-0.9v3.4
			h3.3L231.8-135.4L231.8-135.4z"/>
		<path id="XMLID_408_" inkscape:connector-curvature="0" class="st1" d="M246.8-131c0,2.1-0.6,3.8-1.8,5.2c-1.3,1.4-2.9,2.1-5,2.1
			c-2,0-3.6-0.7-4.8-2s-1.8-3-1.8-5c0-2.1,0.6-3.8,1.8-5.2c1.2-1.3,2.9-2,5-2c2,0,3.6,0.7,4.8,2C246.3-134.7,246.8-133,246.8-131z
			 M243.7-130.9c0-1.3-0.3-2.3-0.8-3.2c-0.6-1.1-1.5-1.6-2.7-1.6s-2.1,0.5-2.8,1.6c-0.5,0.9-0.8,2-0.8,3.3s0.3,2.3,0.8,3.2
			c0.7,1.1,1.6,1.6,2.8,1.6s2.1-0.6,2.7-1.7C243.4-128.5,243.7-129.6,243.7-130.9L243.7-130.9z"/>
		<path id="XMLID_407_" inkscape:connector-curvature="0" class="st1" d="M256.7-135c-0.3-0.1-0.6-0.1-1-0.1c-1.1,0-1.9,0.4-2.5,1.2
			c-0.5,0.7-0.8,1.6-0.8,2.7v7.2h-3v-9.3c0-1.6,0-3-0.1-4.3h2.6l0.1,2.6h0.1c0.3-0.9,0.8-1.6,1.5-2.2c0.7-0.5,1.4-0.7,2.2-0.7
			c0.3,0,0.5,0,0.8,0.1L256.7-135z"/>
		<path id="XMLID_404_" inkscape:connector-curvature="0" class="st1" d="M270.2-131.5c0,0.5,0,1-0.1,1.4H261c0,1.3,0.5,2.4,1.3,3.1
			c0.8,0.6,1.8,1,3,1c1.3,0,2.6-0.2,3.7-0.6l0.5,2.1c-1.3,0.6-2.8,0.8-4.6,0.8c-2.1,0-3.8-0.6-5-1.9c-1.2-1.2-1.8-2.9-1.8-5
			s0.6-3.8,1.7-5.1c1.2-1.5,2.8-2.2,4.8-2.2s3.5,0.7,4.5,2.2C269.8-134.7,270.2-133.2,270.2-131.5z M267.4-132.3
			c0-0.9-0.2-1.7-0.6-2.3c-0.5-0.8-1.3-1.3-2.4-1.3c-1,0-1.8,0.4-2.4,1.2c-0.5,0.7-0.8,1.4-0.9,2.4L267.4-132.3z"/>
	</g>
</g>
<g class="st2">
	<path class="st1" d="M50.4,21.3l0.9,0.2c-0.2,0.8-0.6,1.4-1.1,1.8c-0.5,0.4-1.1,0.6-1.9,0.6c-0.8,0-1.4-0.2-1.9-0.5
		c-0.5-0.3-0.9-0.8-1.1-1.4S45,20.9,45,20.2c0-0.7,0.1-1.4,0.4-2c0.3-0.6,0.7-1,1.2-1.3c0.5-0.3,1.1-0.4,1.7-0.4
		c0.7,0,1.3,0.2,1.8,0.5s0.8,0.9,1,1.5l-0.9,0.2c-0.2-0.5-0.4-0.9-0.7-1.1s-0.7-0.4-1.2-0.4c-0.6,0-1,0.1-1.4,0.4s-0.6,0.6-0.8,1.1
		C46,19.3,46,19.7,46,20.2c0,0.6,0.1,1.1,0.3,1.6c0.2,0.5,0.5,0.8,0.8,1s0.8,0.3,1.2,0.3c0.5,0,1-0.2,1.3-0.5S50.2,21.9,50.4,21.3z"
		/>
	<path class="st1" d="M52.1,21.2c0-1,0.3-1.7,0.8-2.1c0.4-0.4,1-0.6,1.6-0.6c0.7,0,1.3,0.2,1.7,0.7c0.5,0.5,0.7,1.1,0.7,1.9
		c0,0.7-0.1,1.2-0.3,1.6c-0.2,0.4-0.5,0.7-0.9,0.9S54.9,24,54.5,24c-0.7,0-1.3-0.2-1.8-0.7S52.1,22.1,52.1,21.2z M53,21.2
		c0,0.7,0.1,1.2,0.4,1.5c0.3,0.3,0.7,0.5,1.1,0.5c0.4,0,0.8-0.2,1.1-0.5s0.4-0.8,0.4-1.5c0-0.6-0.1-1.1-0.4-1.5
		c-0.3-0.3-0.7-0.5-1.1-0.5c-0.4,0-0.8,0.2-1.1,0.5S53,20.6,53,21.2z"/>
	<path class="st1" d="M57.9,23.8v-5.2h0.8v0.7c0.4-0.6,0.9-0.9,1.7-0.9c0.3,0,0.6,0.1,0.9,0.2c0.3,0.1,0.5,0.3,0.6,0.4
		c0.1,0.2,0.2,0.4,0.3,0.6c0,0.2,0,0.4,0,0.9v3.2h-0.9v-3.2c0-0.4,0-0.6-0.1-0.8c-0.1-0.2-0.2-0.3-0.4-0.4c-0.2-0.1-0.4-0.2-0.6-0.2
		c-0.4,0-0.7,0.1-1,0.4s-0.4,0.7-0.4,1.4v2.8H57.9z"/>
	<path class="st1" d="M63.2,22.3l0.9-0.1c0,0.3,0.2,0.6,0.4,0.8c0.2,0.2,0.5,0.3,0.9,0.3c0.4,0,0.7-0.1,0.9-0.2
		c0.2-0.2,0.3-0.4,0.3-0.6c0-0.2-0.1-0.4-0.3-0.5c-0.1-0.1-0.4-0.2-0.9-0.3c-0.6-0.2-1.1-0.3-1.3-0.4c-0.2-0.1-0.4-0.3-0.6-0.5
		c-0.1-0.2-0.2-0.4-0.2-0.7c0-0.2,0.1-0.4,0.2-0.6c0.1-0.2,0.2-0.4,0.4-0.5c0.1-0.1,0.3-0.2,0.6-0.3c0.2-0.1,0.5-0.1,0.8-0.1
		c0.4,0,0.8,0.1,1.1,0.2s0.5,0.3,0.7,0.5c0.1,0.2,0.2,0.5,0.3,0.8l-0.9,0.1c0-0.3-0.2-0.5-0.3-0.6c-0.2-0.1-0.5-0.2-0.8-0.2
		c-0.4,0-0.7,0.1-0.9,0.2c-0.2,0.1-0.3,0.3-0.3,0.5c0,0.1,0,0.2,0.1,0.3c0.1,0.1,0.2,0.2,0.3,0.2c0.1,0,0.3,0.1,0.8,0.2
		c0.6,0.2,1.1,0.3,1.3,0.4c0.2,0.1,0.4,0.3,0.6,0.5c0.1,0.2,0.2,0.5,0.2,0.8c0,0.3-0.1,0.6-0.3,0.8c-0.2,0.3-0.4,0.5-0.7,0.6
		c-0.3,0.1-0.7,0.2-1.1,0.2c-0.7,0-1.2-0.1-1.5-0.4C63.5,23.3,63.2,22.8,63.2,22.3z"/>
	<path class="st1" d="M68.8,18l0.6-1.4h1.2L69.5,18H68.8z M68.8,23.8v-5.2h0.9v5.2H68.8z"/>
	<path class="st1" d="M71.1,24.3l0.9,0.1c0,0.3,0.1,0.5,0.3,0.6c0.2,0.2,0.5,0.2,0.9,0.2c0.4,0,0.7-0.1,0.9-0.2
		c0.2-0.2,0.4-0.4,0.4-0.7c0-0.2,0.1-0.6,0.1-1.1c-0.4,0.5-0.9,0.7-1.4,0.7c-0.7,0-1.3-0.3-1.7-0.8s-0.6-1.1-0.6-1.9
		c0-0.5,0.1-1,0.3-1.4c0.2-0.4,0.4-0.7,0.8-1c0.3-0.2,0.7-0.3,1.2-0.3c0.6,0,1.1,0.2,1.5,0.7v-0.6h0.8v4.5c0,0.8-0.1,1.4-0.2,1.7
		c-0.2,0.3-0.4,0.6-0.8,0.8s-0.8,0.3-1.3,0.3c-0.6,0-1.1-0.1-1.5-0.4C71.3,25.2,71.1,24.8,71.1,24.3z M71.8,21.1
		c0,0.7,0.1,1.2,0.4,1.5c0.3,0.3,0.6,0.5,1,0.5c0.4,0,0.7-0.2,1-0.5c0.3-0.3,0.4-0.8,0.4-1.5c0-0.6-0.1-1.1-0.4-1.4
		c-0.3-0.3-0.6-0.5-1-0.5c-0.4,0-0.7,0.2-1,0.5C72,20.1,71.8,20.5,71.8,21.1z"/>
	<path class="st1" d="M80.2,23.8v-0.8c-0.4,0.6-1,0.9-1.6,0.9c-0.3,0-0.6-0.1-0.9-0.2c-0.3-0.1-0.5-0.3-0.6-0.4
		c-0.1-0.2-0.2-0.4-0.3-0.7c0-0.2-0.1-0.4-0.1-0.8v-3.2h0.9v2.9c0,0.5,0,0.8,0.1,0.9c0.1,0.2,0.2,0.4,0.4,0.5
		c0.2,0.1,0.4,0.2,0.7,0.2s0.5-0.1,0.7-0.2c0.2-0.1,0.4-0.3,0.5-0.6c0.1-0.2,0.1-0.6,0.1-1v-2.8H81v5.2H80.2z"/>
	<path class="st1" d="M86,22.2l0.9,0.1c-0.1,0.5-0.4,0.9-0.8,1.2c-0.4,0.3-0.9,0.4-1.5,0.4c-0.8,0-1.4-0.2-1.8-0.7
		c-0.4-0.5-0.7-1.1-0.7-2c0-0.9,0.2-1.5,0.7-2s1-0.7,1.7-0.7c0.7,0,1.3,0.2,1.7,0.7s0.7,1.1,0.7,2c0,0.1,0,0.1,0,0.2H83
		c0,0.6,0.2,1,0.5,1.3c0.3,0.3,0.7,0.5,1.1,0.5c0.3,0,0.6-0.1,0.8-0.3C85.6,22.8,85.8,22.5,86,22.2z M83.1,20.7H86
		c0-0.4-0.1-0.8-0.3-1c-0.3-0.3-0.6-0.5-1.1-0.5c-0.4,0-0.7,0.1-1,0.4C83.3,19.9,83.1,20.3,83.1,20.7z"/>
	<path class="st1" d="M87.9,23.8v-7.2h0.9v7.2H87.9z"/>
	<path class="st1" d="M89.9,21.2c0-1,0.3-1.7,0.8-2.1c0.4-0.4,1-0.6,1.6-0.6c0.7,0,1.3,0.2,1.7,0.7c0.5,0.5,0.7,1.1,0.7,1.9
		c0,0.7-0.1,1.2-0.3,1.6c-0.2,0.4-0.5,0.7-0.9,0.9c-0.4,0.2-0.8,0.3-1.3,0.3c-0.7,0-1.3-0.2-1.8-0.7C90.1,22.8,89.9,22.1,89.9,21.2z
		 M90.8,21.2c0,0.7,0.1,1.2,0.4,1.5c0.3,0.3,0.7,0.5,1.1,0.5c0.4,0,0.8-0.2,1.1-0.5c0.3-0.3,0.4-0.8,0.4-1.5c0-0.6-0.1-1.1-0.4-1.5
		c-0.3-0.3-0.7-0.5-1.1-0.5c-0.4,0-0.8,0.2-1.1,0.5C90.9,20.1,90.8,20.6,90.8,21.2z"/>
	<path class="st1" d="M102.1,22.2l0.9,0.1c-0.1,0.5-0.4,0.9-0.8,1.2c-0.4,0.3-0.9,0.4-1.5,0.4c-0.8,0-1.4-0.2-1.8-0.7
		c-0.4-0.5-0.7-1.1-0.7-2c0-0.9,0.2-1.5,0.7-2s1-0.7,1.7-0.7c0.7,0,1.3,0.2,1.7,0.7s0.7,1.1,0.7,2c0,0.1,0,0.1,0,0.2h-3.9
		c0,0.6,0.2,1,0.5,1.3c0.3,0.3,0.7,0.5,1.1,0.5c0.3,0,0.6-0.1,0.8-0.3C101.8,22.8,101.9,22.5,102.1,22.2z M99.2,20.7h2.9
		c0-0.4-0.1-0.8-0.3-1c-0.3-0.3-0.6-0.5-1.1-0.5c-0.4,0-0.7,0.1-1,0.4C99.4,19.9,99.2,20.3,99.2,20.7z"/>
	<path class="st1" d="M104.1,23.8v-5.2h0.8v0.7c0.4-0.6,0.9-0.9,1.7-0.9c0.3,0,0.6,0.1,0.9,0.2c0.3,0.1,0.5,0.3,0.6,0.4
		c0.1,0.2,0.2,0.4,0.3,0.6c0,0.2,0,0.4,0,0.9v3.2h-0.9v-3.2c0-0.4,0-0.6-0.1-0.8c-0.1-0.2-0.2-0.3-0.4-0.4c-0.2-0.1-0.4-0.2-0.6-0.2
		c-0.4,0-0.7,0.1-1,0.4c-0.3,0.2-0.4,0.7-0.4,1.4v2.8H104.1z"/>
	<path class="st1" d="M116,22.2l0.9,0.1c-0.1,0.5-0.4,0.9-0.8,1.2c-0.4,0.3-0.9,0.4-1.5,0.4c-0.8,0-1.4-0.2-1.8-0.7
		c-0.4-0.5-0.7-1.1-0.7-2c0-0.9,0.2-1.5,0.7-2s1-0.7,1.7-0.7c0.7,0,1.3,0.2,1.7,0.7s0.7,1.1,0.7,2c0,0.1,0,0.1,0,0.2H113
		c0,0.6,0.2,1,0.5,1.3c0.3,0.3,0.7,0.5,1.1,0.5c0.3,0,0.6-0.1,0.8-0.3C115.7,22.8,115.8,22.5,116,22.2z M113.1,20.7h2.9
		c0-0.4-0.1-0.8-0.3-1c-0.3-0.3-0.6-0.5-1.1-0.5c-0.4,0-0.7,0.1-1,0.4C113.3,19.9,113.1,20.3,113.1,20.7z"/>
	<path class="st1" d="M118,23.8v-7.2h0.9v7.2H118z"/>
</g>
<path class="st3" d="M129.5,57.2H6.8c-2.5,0-4.4-2-4.4-4.4v-40c0-2.5,2-4.4,4.4-4.4h122.7c2.5,0,4.4,2,4.4,4.4v40
	C133.9,55.3,131.9,57.2,129.5,57.2z"/>
</svg>
