<?xml version="1.0" encoding="utf-8"?>
<!-- Generator: Adobe Illustrator 22.1.0, SVG Export Plug-In . SVG Version: 6.00 Build 0)  -->
<svg version="1.1" id="Capa_1" xmlns="http://www.w3.org/2000/svg" xmlns:xlink="http://www.w3.org/1999/xlink" x="0px" y="0px"
	 viewBox="0 0 135 47.5" style="enable-background:new 0 0 135 47.5;" xml:space="preserve">
<style type="text/css">
	.st0{fill:#FFFFFF;}
	.st1{fill:#FFFFFF;stroke:#FFFFFF;stroke-width:0.2;stroke-miterlimit:10;}
	.st2{fill:none;stroke:#FFFFFF;stroke-miterlimit:10;}
</style>
<title>Play_es</title>
<g>
	<path class="st0" d="M10.3,11.9v22.1c0,0.3,0.1,0.6,0.2,0.9l12-11.9l-12-11.8C10.4,11.4,10.3,11.7,10.3,11.9z"/>
	<path class="st0" d="M12.3,35.2l14.1-8l-3.6-3.6L11.1,35.5C11.5,35.6,12,35.5,12.3,35.2z"/>
	<g>
		<path class="st0" d="M68.1,24.8c-2.3,0-4.2,1.9-4.2,4.3c0,2.3,1.9,4.2,4.3,4.2c2.3,0,4.2-1.9,4.2-4.2c0-2.3-1.8-4.2-4.1-4.3
			C68.2,24.7,68.2,24.7,68.1,24.8z M68.1,31.6c-1.4,0.1-2.7-1-2.8-2.4c-0.1-1.4,1-2.7,2.4-2.8c1.4-0.1,2.7,1,2.8,2.4
			c0,0.1,0,0.1,0,0.2C70.6,30.4,69.6,31.5,68.1,31.6C68.2,31.6,68.2,31.6,68.1,31.6z M58.8,24.8c-2.3,0-4.2,1.9-4.2,4.3
			s1.9,4.2,4.3,4.2c2.3,0,4.2-1.9,4.2-4.2c0-2.3-1.8-4.2-4.1-4.3C58.9,24.7,58.9,24.7,58.8,24.8L58.8,24.8z M58.8,31.6
			c-1.4,0.1-2.7-1-2.8-2.4c-0.1-1.4,1-2.7,2.4-2.8s2.7,1,2.8,2.4c0,0.1,0,0.1,0,0.2C61.3,30.4,60.2,31.5,58.8,31.6
			C58.9,31.6,58.8,31.6,58.8,31.6L58.8,31.6z M47.7,26.1v1.8h4.3c-0.1,0.8-0.4,1.6-1,2.3c-0.9,0.9-2.1,1.4-3.3,1.3
			c-2.7,0-4.8-2.1-4.8-4.8s2.1-4.8,4.8-4.8c1.2,0,2.4,0.4,3.3,1.3l1.3-1.3c-1.2-1.2-2.8-1.9-4.5-1.9c-3.6-0.1-6.7,2.7-6.9,6.3
			c-0.1,3.6,2.7,6.7,6.3,6.9c0.2,0,0.3,0,0.5,0c1.7,0.1,3.4-0.6,4.6-1.9c1-1.2,1.6-2.7,1.6-4.2c0-0.4,0-0.8-0.1-1.1L47.7,26.1z
			 M93.1,27.5c-0.5-1.6-2-2.6-3.6-2.7c-2.2,0-4,1.8-4,4c0,0.1,0,0.2,0,0.3c0,2.3,1.8,4.2,4.1,4.2c0.1,0,0.1,0,0.2,0
			c1.4,0,2.8-0.7,3.5-1.9l-1.4-1c-0.4,0.7-1.2,1.2-2.1,1.2c-0.9,0-1.7-0.5-2.1-1.3l5.7-2.4L93.1,27.5z M87.2,28.9
			c-0.1-1.3,0.9-2.4,2.2-2.5c0,0,0,0,0,0c0.7,0,1.3,0.3,1.6,0.9L87.2,28.9z M82.6,33h1.9V20.5h-1.9V33z M79.6,25.7L79.6,25.7
			c-0.6-0.6-1.5-1-2.3-1c-2.3,0.1-4.2,2.1-4,4.5c0.1,2.2,1.9,3.9,4,4c0.9,0,1.7-0.4,2.2-1h0.1v0.6c0,1.6-0.9,2.5-2.3,2.5
			c-1,0-1.8-0.6-2.1-1.5l-1.6,0.7c0.6,1.5,2.1,2.5,3.8,2.5c2.2,0,4-1.3,4-4.4V25h-1.7V25.7z M77.4,31.6c-1.4-0.1-2.5-1.4-2.4-2.8
			c0.1-1.3,1.1-2.2,2.4-2.4c1.3,0.1,2.3,1.2,2.3,2.5c0,0,0,0,0,0.1c0.1,1.3-0.9,2.5-2.2,2.6C77.5,31.6,77.5,31.6,77.4,31.6
			L77.4,31.6z M101.8,20.5h-4.5V33h1.9v-4.7h2.6c2.1,0.2,4-1.5,4.2-3.6c0.2-2.1-1.5-4-3.6-4.2C102.2,20.5,102,20.5,101.8,20.5z
			 M101.8,26.5h-2.6v-4.3h2.7c1.2,0,2.1,1,2.1,2.1C104,25.6,103,26.5,101.8,26.5L101.8,26.5z M113.3,24.7c-1.4-0.1-2.7,0.7-3.3,1.9
			l1.7,0.7c0.3-0.6,1-1,1.7-0.9c1-0.1,1.9,0.6,2,1.6c0,0,0,0,0,0v0.1c-0.6-0.3-1.3-0.5-1.9-0.5c-1.8,0-3.6,1-3.6,2.8
			c0.1,1.6,1.4,2.8,3,2.8c0,0,0.1,0,0.1,0c1,0.1,1.9-0.4,2.4-1.2h0.1v1h1.8v-4.8C117.2,26,115.5,24.7,113.3,24.7L113.3,24.7z
			 M113.1,31.6c-0.6,0-1.5-0.3-1.5-1.1c0-1,1.1-1.3,2-1.3c0.6,0,1.2,0.1,1.7,0.4C115.2,30.7,114.3,31.6,113.1,31.6L113.1,31.6z
			 M123.7,25l-2.1,5.4h-0.1l-2.2-5.4h-2l3.3,7.6l-1.9,4.2h1.9l5.1-11.8H123.7z M106.9,33h1.9V20.5h-1.9V33z"/>
		<path class="st0" d="M32.7,23c-0.1-0.5-0.4-0.9-0.9-1.1l-4.7-2.7L23.4,23l3.8,3.8l4.7-2.6C32.3,23.9,32.6,23.5,32.7,23z"/>
		<path class="st0" d="M26.5,18.8l-14.2-8c-0.4-0.2-0.8-0.3-1.2-0.2l11.8,11.8L26.5,18.8z"/>
		<g>
			<path class="st1" d="M41.3,16v-6h1.8c0.8,0,1.6,0.3,2.2,0.8c0.6,0.6,0.9,1.4,0.8,2.2c0,0.8-0.3,1.6-0.8,2.2
				c-0.6,0.6-1.4,0.9-2.2,0.8H41.3z M42,15.3h1.1c0.6,0,1.2-0.2,1.7-0.6c0.4-0.4,0.6-1,0.6-1.7c0-0.6-0.2-1.2-0.6-1.7
				c-0.4-0.4-1-0.6-1.7-0.6H42V15.3z"/>
			<path class="st1" d="M47.2,16v-6H48v6H47.2z"/>
			<path class="st1" d="M51.1,16.1c-0.5,0-0.9-0.2-1.3-0.4c-0.4-0.3-0.7-0.7-0.8-1.2l0.7-0.3c0.1,0.3,0.3,0.6,0.5,0.8
				c0.2,0.2,0.6,0.3,0.9,0.3c0.3,0,0.6-0.1,0.9-0.3c0.2-0.2,0.4-0.4,0.4-0.7c0-0.3-0.1-0.6-0.4-0.8c-0.3-0.2-0.7-0.4-1.1-0.5
				c-0.4-0.1-0.9-0.3-1.2-0.6c-0.3-0.3-0.4-0.6-0.4-1c0-0.4,0.2-0.8,0.5-1.1C50,10,50.5,9.9,51,9.9c0.4,0,0.9,0.1,1.2,0.4
				c0.3,0.2,0.5,0.5,0.6,0.8l-0.7,0.3c-0.1-0.2-0.2-0.4-0.4-0.5c-0.5-0.3-1.1-0.3-1.5,0c-0.2,0.1-0.3,0.4-0.3,0.6
				c0,0.2,0.1,0.4,0.3,0.6c0.3,0.2,0.5,0.3,0.8,0.4c0.3,0.1,0.5,0.2,0.7,0.3c0.2,0.1,0.4,0.2,0.6,0.4c0.2,0.1,0.4,0.3,0.5,0.6
				c0.1,0.2,0.2,0.5,0.2,0.8c0,0.3-0.1,0.5-0.2,0.8c-0.1,0.2-0.3,0.4-0.5,0.5C52.2,15.9,52,16,51.8,16
				C51.5,16.1,51.3,16.1,51.1,16.1z"/>
			<path class="st1" d="M55,16h-0.8v-6h2c0.5,0,1,0.2,1.3,0.5c0.7,0.7,0.8,1.8,0.1,2.5c0,0-0.1,0.1-0.1,0.1
				c-0.4,0.3-0.8,0.5-1.3,0.5H55V16z M55,12.8h1.3c0.3,0,0.5-0.1,0.7-0.3c0.4-0.4,0.4-1,0-1.4c0,0,0,0,0,0c-0.2-0.2-0.5-0.3-0.8-0.3
				H55V12.8z"/>
			<path class="st1" d="M64,15.2c-1.2,1.2-3.2,1.2-4.4,0c-0.6-0.6-0.9-1.4-0.9-2.2c0-0.8,0.3-1.6,0.9-2.2c1.2-1.2,3.2-1.2,4.4,0
				c0,0,0,0,0,0c0.6,0.6,0.9,1.4,0.9,2.2C64.9,13.8,64.6,14.6,64,15.2z M60.2,14.7c0.9,0.9,2.4,0.9,3.3,0c0.4-0.5,0.7-1.1,0.7-1.7
				c0-0.6-0.2-1.3-0.7-1.7c-0.9-0.9-2.4-0.9-3.3,0c-0.4,0.5-0.7,1.1-0.7,1.7C59.5,13.6,59.7,14.3,60.2,14.7L60.2,14.7z"/>
			<path class="st1" d="M66,16v-6h0.9l2.9,4.7l0,0v-1.2V10h0.8v6h-0.8l-3.1-4.9l0,0v1.2V16H66z"/>
			<path class="st1" d="M72,16v-6h0.8v6H72z"/>
			<path class="st1" d="M74.1,16v-6h2.2c0.5,0,0.9,0.2,1.2,0.5c0.3,0.3,0.5,0.7,0.5,1.2c0,0.3-0.1,0.5-0.2,0.8
				c-0.1,0.2-0.4,0.4-0.6,0.5l0,0c0.3,0.1,0.5,0.3,0.7,0.5c0.2,0.2,0.3,0.5,0.3,0.9c0,0.5-0.2,0.9-0.5,1.2c-0.3,0.3-0.8,0.5-1.3,0.5
				L74.1,16z M74.9,12.6h1.4c0.3,0,0.5-0.1,0.7-0.3c0.4-0.3,0.4-0.9,0.1-1.3c0,0,0,0,0,0c-0.2-0.2-0.4-0.3-0.7-0.3h-1.5L74.9,12.6z
				 M74.9,15.3h1.6c0.3,0,0.5-0.1,0.7-0.3c0.2-0.2,0.3-0.4,0.3-0.7c0-0.6-0.4-1-1-1h-1.5L74.9,15.3z"/>
			<path class="st1" d="M79.2,16v-6H80v5.3h2.6V16H79.2z"/>
			<path class="st1" d="M87.1,10.7h-2.7v1.9h2.5v0.7h-2.5v1.9h2.7V16h-3.5v-6h3.5V10.7z"/>
			<path class="st1" d="M93.8,10.7h-2.7v1.9h2.5v0.7h-2.5v1.9h2.7V16h-3.5v-6h3.5L93.8,10.7z"/>
			<path class="st1" d="M95,16v-6h1l2.9,4.7l0,0v-1.2V10h0.8v6h-0.8l-3.1-4.9l0,0v1.2V16H95z"/>
		</g>
	</g>
</g>
<path class="st2" d="M131.2,46.7H3.9c-1.7,0-3.1-1.4-3.1-3.1V4C0.8,2.3,2.2,1,3.9,1h127.3c1.7,0,3.1,1.4,3.1,3.1v39.6
	C134.3,45.4,132.9,46.7,131.2,46.7z"/>
</svg>
